<svg aria-hidden="true" style="position: absolute; width: 0; height: 0; overflow: hidden;" version="1.1" xmlns="http://www.w3.org/2000/svg" xmlns:xlink="http://www.w3.org/1999/xlink">
<defs>
<symbol id="icon-facebook" viewBox="0 0 32 32">
<path d="M20.693 1.92c0.32 0 0.64 0 1.28 0v4.8c-0.32 0-0.96 0-1.6 0s-1.28 0-1.6 0.32c-0.32 0.32-0.32 0.64-0.32 1.387 0 0.64 0 1.067 0 1.707h3.52v4.053h-3.52v17.6h-5.44v-17.707h-2.88v-4.053h2.88v-1.387c0-2.347 0.32-4.053 0.96-4.8 0.96-1.387 2.88-2.027 5.76-2.027 0.32 0.107 0.64 0.107 0.96 0.107z"></path>
</symbol>
<symbol id="icon-instagram" viewBox="0 0 32 32">
<path d="M31.897 9.445c-0.020-1.343-0.268-2.675-0.745-3.931-0.833-2.145-2.53-3.841-4.679-4.671-1.242-0.467-2.555-0.717-3.885-0.745-1.709-0.076-2.251-0.098-6.591-0.098s-4.896 0-6.593 0.098c-1.327 0.028-2.641 0.279-3.883 0.745-2.148 0.83-3.847 2.526-4.679 4.671-0.467 1.24-0.72 2.551-0.745 3.876-0.076 1.708-0.1 2.249-0.1 6.582s0 4.886 0.1 6.582c0.027 1.327 0.277 2.636 0.745 3.88 0.833 2.143 2.53 3.839 4.681 4.669 1.237 0.482 2.55 0.756 3.883 0.798 1.711 0.076 2.253 0.099 6.593 0.099s4.896 0 6.593-0.099c1.327-0.027 2.641-0.277 3.885-0.743 2.148-0.832 3.845-2.528 4.679-4.671 0.467-1.242 0.718-2.551 0.744-3.88 0.076-1.707 0.1-2.248 0.1-6.582-0.004-4.332-0.004-4.882-0.103-6.58zM15.988 24.164c-4.538 0-8.215-3.671-8.215-8.201s3.677-8.201 8.215-8.201c4.535 0 8.215 3.67 8.215 8.201s-3.68 8.201-8.215 8.201zM24.53 9.37c-1.061 0-1.916-0.855-1.916-1.912s0.855-1.912 1.916-1.912c1.057 0 1.914 0.855 1.914 1.912s-0.857 1.912-1.914 1.912z"></path>
</symbol>
<symbol id="icon-menu" viewBox="0 0 32 32">
<path stroke-linejoin="round" stroke-linecap="round" stroke-miterlimit="4" stroke-width="2.8235" d="M1.882 10.51h28.235M1.882 21.49h28.235"></path>
</symbol>
<symbol id="icon-x-close" viewBox="0 0 32 32">
<path stroke-linejoin="round" stroke-linecap="round" stroke-miterlimit="4" stroke-width="2.3529" d="M24 8l-16 16"></path>
<path stroke-linejoin="round" stroke-linecap="round" stroke-miterlimit="4" stroke-width="2.3529" d="M8 8l16 16"></path>
</symbol>
<symbol id="icon-x-close-1" viewBox="0 0 32 32">
<path stroke-linejoin="round" stroke-linecap="round" stroke-miterlimit="4" stroke-width="4" d="M2.4 2.4l27.2 27.2"></path>
</symbol>
<symbol id="icon-x-close-2" viewBox="0 0 32 32">
<path stroke-linejoin="round" stroke-linecap="round" stroke-miterlimit="4" stroke-width="4" d="M29.6 2.4l-27.2 27.2"></path>
</symbol>
<symbol id="icon-youtube" viewBox="0 0 32 32">
<path d="M25.155 4.889c-1.511-0.089-4.622-0.178-9.333-0.178h-0.622c-4.533 0-7.556 0.089-9.067 0.267-2.044 0.178-3.467 0.711-4.267 1.422-0.711 0.622-1.244 1.778-1.422 3.289-0.089 0.978-0.178 3.022-0.178 6.133v0.444c0 2.933 0.089 4.978 0.267 5.956 0.267 1.422 0.711 2.489 1.6 3.111 0.889 0.711 2.4 1.156 4.533 1.333 1.511 0.089 4.622 0.178 9.333 0.178h0.622c4.533 0 7.556-0.089 9.067-0.267 2.044-0.178 3.467-0.711 4.267-1.422 0.711-0.622 1.244-1.778 1.422-3.289 0.089-0.978 0.178-3.022 0.178-6.133v-0.444c0-2.933-0.089-4.978-0.267-5.956-0.267-1.422-0.711-2.489-1.6-3.111-0.889-0.711-2.4-1.156-4.533-1.333zM21.689 15.822l-9.778 5.867v-11.733l9.778 5.867z"></path>
</symbol>
</defs>
</svg>
